<?xml version="1.0" encoding="utf-8"?>
<!-- Generator: Adobe Illustrator 22.0.1, SVG Export Plug-In . SVG Version: 6.00 Build 0)  -->
<svg version="1.1" id="Layer_1" xmlns="http://www.w3.org/2000/svg" xmlns:xlink="http://www.w3.org/1999/xlink" x="0px" y="0px"
	 viewBox="0 0 152.4 152.4" style="enable-background:new 0 0 152.4 152.4;" xml:space="preserve">
<style type="text/css">
	.st0{fill:#FAC036;}
	.st1{fill:#E48C15;}
</style>
<g>
	<path class="st0" d="M116.5,31.3c-4.6-8.6-7.2-13.4-12.8-20.5c-5.6-7-12.1-14.1-19.5-7.8c-3.7,3.2-2.6,8.2,0.2,13.2
		c-0.5-0.3,0.4,2.2,0,1.8c-8.3-6.4-10.1-5.7-13-3.4c-6.8,5.4,5,16.5,8.8,22.4c0.7,1,3.1,2,3.6,2.9c0.4,0.6,0.8,1.3,1.1,1.9
		c-0.4-0.1-0.9-0.3-1.3-0.4c-4-1.1-13.3-2.3-17.5-0.8C39.9,50.7,41.2,55,43.2,60.6c2,5.7,9.4,9.8,21.4,2.4
		c14.8-6.1,27.1,2.1,27.1,10.6c0,11.7-3.8,18.3-13.9,18.3c-15.9,0-16.7-13-25.2-21.4c-2.3-2.3-7.8-3-11-0.6
		c-7.6,5.5-2.7,16.9-0.8,20.7c4,8,8.8,19.5,21.7,29.9c6.8,5.5,23.5,4.6,33.2,2.7c18.4-3.8,22.2-16,28.1-37c2.2-7.9,2.5-14.2,2.5-23
		C126.2,54.3,120.8,39.4,116.5,31.3z"/>
	<path class="st1" d="M116.1,59.2c-1.2-5-10.8-12.9-14.8-15.5c-0.4-2.2-6.3-15.1-10.2-20.3c-2.1-2.8-6.1-6.7-7.5-8.4
		c0,0,0.3,1.4-0.7,2.2c0.4,0.5,6.2,7.7,8.6,13.1s4.4,11.2,4.4,11.2c-2.6-0.9-12.9-4.3-15.8-4.3c0,0,1,0.9,1,2.6c0,1.5-2.2,0.7-1,1.1
		c7.6,2.2,18.3,4.8,24.8,11.1c2.6,2.5,6.4,7.2,8.2,10.3C114.5,64.5,116.4,60.5,116.1,59.2z"/>
</g>
</svg>
